<?xml version="1.0" encoding="UTF-8" standalone="no"?>
<!DOCTYPE svg PUBLIC "-//W3C//DTD SVG 1.1//EN"
 "http://www.w3.org/Graphics/SVG/1.1/DTD/svg11.dtd">
<!-- Generated by graphviz version 2.44.1 (20200629.0846)
 -->
<!-- Title: G Pages: 1 -->
<svg width="1235pt" height="393pt"
 viewBox="0.00 0.00 1234.74 392.98" xmlns="http://www.w3.org/2000/svg" xmlns:xlink="http://www.w3.org/1999/xlink">
<g id="graph0" class="graph" transform="scale(1 1) rotate(0) translate(4 388.98)">
<title>G</title><style>.edge>path:hover{stroke-width:8}</style>
<polygon fill="white" stroke="transparent" points="-4,4 -4,-388.98 1230.74,-388.98 1230.74,4 -4,4"/>
<!-- IntelligentEnergy_pipeline_S1_base_generation -->
<g id="node1" class="node">
<title>IntelligentEnergy_pipeline_S1_base_generation</title><style>.edge>path:hover{stroke-width:8}</style>
<ellipse fill="#b34c4c" stroke="black" cx="591.35" cy="-28.99" rx="74.49" ry="28.98"/>
<text text-anchor="middle" x="591.35" y="-37.49" font-family="Helvetica,sans-Serif" font-size="10.00" fill="#ffffff">IntelligentEnergy.</text>
<text text-anchor="middle" x="591.35" y="-26.49" font-family="Helvetica,sans-Serif" font-size="10.00" fill="#ffffff">pipeline.</text>
<text text-anchor="middle" x="591.35" y="-15.49" font-family="Helvetica,sans-Serif" font-size="10.00" fill="#ffffff">S1_base_generation</text>
</g>
<!-- IntelligentEnergy_pipeline_S2_ft_eng_physics -->
<g id="node2" class="node">
<title>IntelligentEnergy_pipeline_S2_ft_eng_physics</title><style>.edge>path:hover{stroke-width:8}</style>
<ellipse fill="#b34c4c" stroke="black" cx="754.35" cy="-28.99" rx="70.92" ry="28.98"/>
<text text-anchor="middle" x="754.35" y="-37.49" font-family="Helvetica,sans-Serif" font-size="10.00" fill="#ffffff">IntelligentEnergy.</text>
<text text-anchor="middle" x="754.35" y="-26.49" font-family="Helvetica,sans-Serif" font-size="10.00" fill="#ffffff">pipeline.</text>
<text text-anchor="middle" x="754.35" y="-15.49" font-family="Helvetica,sans-Serif" font-size="10.00" fill="#ffffff">S2_ft_eng_physics</text>
</g>
<!-- IntelligentEnergy_pipeline_S3_detection_aggregation -->
<g id="node3" class="node">
<title>IntelligentEnergy_pipeline_S3_detection_aggregation</title><style>.edge>path:hover{stroke-width:8}</style>
<ellipse fill="#964040" stroke="black" cx="238.35" cy="-28.99" rx="91.43" ry="28.98"/>
<text text-anchor="middle" x="238.35" y="-37.49" font-family="Helvetica,sans-Serif" font-size="10.00" fill="#ffffff">IntelligentEnergy.</text>
<text text-anchor="middle" x="238.35" y="-26.49" font-family="Helvetica,sans-Serif" font-size="10.00" fill="#ffffff">pipeline.</text>
<text text-anchor="middle" x="238.35" y="-15.49" font-family="Helvetica,sans-Serif" font-size="10.00" fill="#ffffff">S3_detection_aggregation</text>
</g>
<!-- IntelligentEnergy_pipeline_S4_ft_eng_math -->
<g id="node4" class="node">
<title>IntelligentEnergy_pipeline_S4_ft_eng_math</title><style>.edge>path:hover{stroke-width:8}</style>
<ellipse fill="#883a3a" stroke="black" cx="64.35" cy="-28.99" rx="64.19" ry="28.98"/>
<text text-anchor="middle" x="64.35" y="-37.49" font-family="Helvetica,sans-Serif" font-size="10.00" fill="#ffffff">IntelligentEnergy.</text>
<text text-anchor="middle" x="64.35" y="-26.49" font-family="Helvetica,sans-Serif" font-size="10.00" fill="#ffffff">pipeline.</text>
<text text-anchor="middle" x="64.35" y="-15.49" font-family="Helvetica,sans-Serif" font-size="10.00" fill="#ffffff">S4_ft_eng_math</text>
</g>
<!-- IntelligentEnergy_pipeline_S5_approach_alt_modeling -->
<g id="node5" class="node">
<title>IntelligentEnergy_pipeline_S5_approach_alt_modeling</title><style>.edge>path:hover{stroke-width:8}</style>
<ellipse fill="#723131" stroke="black" cx="937.35" cy="-28.99" rx="94.51" ry="28.98"/>
<text text-anchor="middle" x="937.35" y="-37.49" font-family="Helvetica,sans-Serif" font-size="10.00" fill="#ffffff">IntelligentEnergy.</text>
<text text-anchor="middle" x="937.35" y="-26.49" font-family="Helvetica,sans-Serif" font-size="10.00" fill="#ffffff">pipeline.</text>
<text text-anchor="middle" x="937.35" y="-15.49" font-family="Helvetica,sans-Serif" font-size="10.00" fill="#ffffff">S5_approach_alt_modeling</text>
</g>
<!-- IntelligentEnergy_pipeline_S6_steam_allocation -->
<g id="node6" class="node">
<title>IntelligentEnergy_pipeline_S6_steam_allocation</title><style>.edge>path:hover{stroke-width:8}</style>
<ellipse fill="#9d4343" stroke="black" cx="423.35" cy="-28.99" rx="75.82" ry="28.98"/>
<text text-anchor="middle" x="423.35" y="-37.49" font-family="Helvetica,sans-Serif" font-size="10.00" fill="#ffffff">IntelligentEnergy.</text>
<text text-anchor="middle" x="423.35" y="-26.49" font-family="Helvetica,sans-Serif" font-size="10.00" fill="#ffffff">pipeline.</text>
<text text-anchor="middle" x="423.35" y="-15.49" font-family="Helvetica,sans-Serif" font-size="10.00" fill="#ffffff">S6_steam_allocation</text>
</g>
<!-- IntelligentEnergy_pipeline_modeling_bare_minimum -->
<g id="node7" class="node">
<title>IntelligentEnergy_pipeline_modeling_bare_minimum</title><style>.edge>path:hover{stroke-width:8}</style>
<ellipse fill="#8f3d3d" stroke="black" cx="1138.35" cy="-28.99" rx="88.28" ry="28.98"/>
<text text-anchor="middle" x="1138.35" y="-37.49" font-family="Helvetica,sans-Serif" font-size="10.00" fill="#ffffff">IntelligentEnergy.</text>
<text text-anchor="middle" x="1138.35" y="-26.49" font-family="Helvetica,sans-Serif" font-size="10.00" fill="#ffffff">pipeline.</text>
<text text-anchor="middle" x="1138.35" y="-15.49" font-family="Helvetica,sans-Serif" font-size="10.00" fill="#ffffff">modeling_bare_minimum</text>
</g>
<!-- autofeat -->
<g id="node8" class="node">
<title>autofeat</title><style>.edge>path:hover{stroke-width:8}</style>
<polygon fill="#b69553" stroke="black" points="124.35,-203.98 121.35,-207.98 100.35,-207.98 97.35,-203.98 70.35,-203.98 70.35,-167.98 124.35,-167.98 124.35,-203.98"/>
<text text-anchor="middle" x="97.35" y="-183.48" font-family="Helvetica,sans-Serif" font-size="10.00" fill="#000000">autofeat</text>
</g>
<!-- autofeat&#45;&gt;IntelligentEnergy_pipeline_S4_ft_eng_math -->
<g id="edge1" class="edge">
<title>autofeat&#45;&gt;IntelligentEnergy_pipeline_S4_ft_eng_math</title><style>.edge>path:hover{stroke-width:8}</style>
<path fill="none" stroke="black" d="M124.48,-173.16C156.71,-158.95 206.29,-136.43 207.35,-131.98"/>
<path fill="none" stroke="black" d="M207.35,-130.98C212.73,-108.35 160.53,-76.66 117.69,-54.85"/>
<polygon fill="#b69553" stroke="black" points="119.22,-51.7 108.71,-50.35 116.09,-57.96 119.22,-51.7"/>
</g>
<!-- colorama -->
<g id="node9" class="node">
<title>colorama</title><style>.edge>path:hover{stroke-width:8}</style>
<polygon fill="#99c247" stroke="black" points="876.35,-203.98 873.35,-207.98 852.35,-207.98 849.35,-203.98 820.35,-203.98 820.35,-167.98 876.35,-167.98 876.35,-203.98"/>
<text text-anchor="middle" x="848.35" y="-183.48" font-family="Helvetica,sans-Serif" font-size="10.00" fill="#000000">colorama</text>
</g>
<!-- colorama&#45;&gt;IntelligentEnergy_pipeline_S5_approach_alt_modeling -->
<g id="edge2" class="edge">
<title>colorama&#45;&gt;IntelligentEnergy_pipeline_S5_approach_alt_modeling</title><style>.edge>path:hover{stroke-width:8}</style>
<path fill="none" stroke="black" d="M900.35,-130.98C909.62,-117.94 900.03,-110.98 900.35,-94.98"/>
<path fill="none" stroke="black" d="M900.35,-93.98C900.54,-84.17 903.92,-74.52 908.56,-65.8"/>
<polygon fill="#99c247" stroke="black" points="911.65,-67.46 913.78,-57.08 905.64,-63.86 911.65,-67.46"/>
<path fill="none" stroke="black" d="M867.92,-167.87C878.39,-158.06 891.01,-145.11 900.35,-131.98"/>
</g>
<!-- colorama&#45;&gt;IntelligentEnergy_pipeline_modeling_bare_minimum -->
<g id="edge3" class="edge">
<title>colorama&#45;&gt;IntelligentEnergy_pipeline_modeling_bare_minimum</title><style>.edge>path:hover{stroke-width:8}</style>
<path fill="none" stroke="black" d="M938.35,-93.98C942.3,-88.53 1008.42,-68.02 1063.56,-51.68"/>
<polygon fill="#99c247" stroke="black" points="1064.76,-54.97 1073.36,-48.78 1062.78,-48.26 1064.76,-54.97"/>
<path fill="none" stroke="black" d="M900.35,-130.98C913.83,-112.02 924.69,-113.82 938.35,-94.98"/>
</g>
<!-- h2o -->
<g id="node10" class="node">
<title>h2o</title><style>.edge>path:hover{stroke-width:8}</style>
<polygon fill="#33cc33" stroke="black" points="948.35,-203.98 945.35,-207.98 924.35,-207.98 921.35,-203.98 894.35,-203.98 894.35,-167.98 948.35,-167.98 948.35,-203.98"/>
<text text-anchor="middle" x="921.35" y="-183.48" font-family="Helvetica,sans-Serif" font-size="10.00" fill="#000000">h2o</text>
</g>
<!-- h2o&#45;&gt;IntelligentEnergy_pipeline_S5_approach_alt_modeling -->
<g id="edge4" class="edge">
<title>h2o&#45;&gt;IntelligentEnergy_pipeline_S5_approach_alt_modeling</title><style>.edge>path:hover{stroke-width:8}</style>
<path fill="none" stroke="black" d="M938.35,-130.98C936.35,-107.8 899.88,-118.24 900.35,-94.98"/>
<path fill="none" stroke="black" d="M930.64,-167.73C935.16,-157.56 939.41,-144.31 938.35,-131.98"/>
</g>
<!-- h2o&#45;&gt;IntelligentEnergy_pipeline_modeling_bare_minimum -->
<g id="edge5" class="edge">
<title>h2o&#45;&gt;IntelligentEnergy_pipeline_modeling_bare_minimum</title><style>.edge>path:hover{stroke-width:8}</style>
<path fill="none" stroke="black" d="M938.35,-130.98C936.97,-115.04 928.96,-107.94 938.35,-94.98"/>
</g>
<!-- matplotlib -->
<g id="node11" class="node">
<title>matplotlib</title><style>.edge>path:hover{stroke-width:8}</style>
<polygon fill="#05e59b" stroke="black" points="385.85,-275.98 382.85,-279.98 361.85,-279.98 358.85,-275.98 326.85,-275.98 326.85,-239.98 385.85,-239.98 385.85,-275.98"/>
<text text-anchor="middle" x="356.35" y="-255.48" font-family="Helvetica,sans-Serif" font-size="10.00" fill="#000000">matplotlib</text>
</g>
<!-- matplotlib&#45;&gt;IntelligentEnergy_pipeline_S3_detection_aggregation -->
<g id="edge6" class="edge">
<title>matplotlib&#45;&gt;IntelligentEnergy_pipeline_S3_detection_aggregation</title><style>.edge>path:hover{stroke-width:8}</style>
<path fill="none" stroke="black" d="M334.37,-239.82C320.38,-227.08 304.21,-208.27 300.35,-186.98"/>
</g>
<!-- matplotlib&#45;&gt;IntelligentEnergy_pipeline_S4_ft_eng_math -->
<g id="edge7" class="edge">
<title>matplotlib&#45;&gt;IntelligentEnergy_pipeline_S4_ft_eng_math</title><style>.edge>path:hover{stroke-width:8}</style>
<path fill="none" stroke="black" d="M332.6,-239.84C318.85,-229.71 301.35,-216.46 286.35,-203.98 281.78,-200.19 207.67,-137.91 207.35,-131.98"/>
</g>
<!-- matplotlib&#45;&gt;IntelligentEnergy_pipeline_S5_approach_alt_modeling -->
<g id="edge8" class="edge">
<title>matplotlib&#45;&gt;IntelligentEnergy_pipeline_S5_approach_alt_modeling</title><style>.edge>path:hover{stroke-width:8}</style>
<path fill="none" stroke="black" d="M792.35,-184.98C824.98,-139.83 869.64,-93.95 900.74,-63.96"/>
<polygon fill="#05e59b" stroke="black" points="903.54,-66.12 908.34,-56.68 898.7,-61.07 903.54,-66.12"/>
<path fill="none" stroke="black" d="M386.04,-255.5C469.37,-250.97 703.89,-235.68 773.35,-203.98 783.66,-199.28 783.07,-193.48 792.35,-186.98"/>
</g>
<!-- matplotlib&#45;&gt;IntelligentEnergy_pipeline_S6_steam_allocation -->
<g id="edge9" class="edge">
<title>matplotlib&#45;&gt;IntelligentEnergy_pipeline_S6_steam_allocation</title><style>.edge>path:hover{stroke-width:8}</style>
<path fill="none" stroke="black" d="M370.34,-239.87C377.73,-229.96 386.28,-216.92 391.35,-203.98 409.4,-157.85 400.05,-142.64 409.35,-93.98 410.97,-85.47 412.87,-76.36 414.74,-67.76"/>
<polygon fill="#05e59b" stroke="black" points="418.16,-68.48 416.89,-57.96 411.32,-66.97 418.16,-68.48"/>
</g>
<!-- seaborn -->
<g id="node14" class="node">
<title>seaborn</title><style>.edge>path:hover{stroke-width:8}</style>
<polygon fill="#9724d0" stroke="black" points="382.35,-203.98 379.35,-207.98 358.35,-207.98 355.35,-203.98 328.35,-203.98 328.35,-167.98 382.35,-167.98 382.35,-203.98"/>
<text text-anchor="middle" x="355.35" y="-183.48" font-family="Helvetica,sans-Serif" font-size="10.00" fill="#ffffff">seaborn</text>
</g>
<!-- matplotlib&#45;&gt;seaborn -->
<g id="edge10" class="edge">
<title>matplotlib&#45;&gt;seaborn</title><style>.edge>path:hover{stroke-width:8}</style>
<path fill="none" stroke="black" d="M356.1,-239.68C355.99,-231.97 355.86,-222.7 355.73,-214.1"/>
<polygon fill="#05e59b" stroke="black" points="359.23,-214.04 355.59,-204.09 352.23,-214.14 359.23,-214.04"/>
</g>
<!-- numpy -->
<g id="node12" class="node">
<title>numpy</title><style>.edge>path:hover{stroke-width:8}</style>
<polygon fill="#06a8f9" stroke="black" points="383.35,-384.98 380.35,-388.98 359.35,-388.98 356.35,-384.98 329.35,-384.98 329.35,-348.98 383.35,-348.98 383.35,-384.98"/>
<text text-anchor="middle" x="356.35" y="-364.48" font-family="Helvetica,sans-Serif" font-size="10.00" fill="#000000">numpy</text>
</g>
<!-- numpy&#45;&gt;IntelligentEnergy_pipeline_S3_detection_aggregation -->
<g id="edge11" class="edge">
<title>numpy&#45;&gt;IntelligentEnergy_pipeline_S3_detection_aggregation</title><style>.edge>path:hover{stroke-width:8}</style>
<path fill="none" stroke="black" d="M300.35,-184.98C292.68,-142.73 273.12,-97.47 258,-66.83"/>
<polygon fill="#06a8f9" stroke="black" points="261.09,-65.18 253.47,-57.81 254.83,-68.32 261.09,-65.18"/>
<path fill="none" stroke="black" d="M298.35,-256.98C276,-235.32 309.7,-216.67 300.35,-186.98"/>
</g>
<!-- numpy&#45;&gt;IntelligentEnergy_pipeline_S4_ft_eng_math -->
<g id="edge12" class="edge">
<title>numpy&#45;&gt;IntelligentEnergy_pipeline_S4_ft_eng_math</title><style>.edge>path:hover{stroke-width:8}</style>
<path fill="none" stroke="black" d="M351.82,-348.86C349.9,-337.75 349.48,-323.44 356.35,-312.98"/>
<path fill="none" stroke="black" d="M298.35,-256.98C254.43,-214.41 205.26,-254.88 171.35,-203.98 162.48,-190.67 165.22,-182.76 171.35,-167.98 180.01,-147.08 208.74,-154.57 207.35,-131.98"/>
<path fill="none" stroke="black" d="M356.35,-311.98C356.95,-311.07 299.11,-259.77 298.35,-258.98"/>
</g>
<!-- numpy&#45;&gt;IntelligentEnergy_pipeline_S5_approach_alt_modeling -->
<g id="edge13" class="edge">
<title>numpy&#45;&gt;IntelligentEnergy_pipeline_S5_approach_alt_modeling</title><style>.edge>path:hover{stroke-width:8}</style>
<path fill="none" stroke="black" d="M792.35,-256.98C818.4,-239.98 766.86,-204.83 792.35,-186.98"/>
</g>
<!-- numpy&#45;&gt;IntelligentEnergy_pipeline_modeling_bare_minimum -->
<g id="edge14" class="edge">
<title>numpy&#45;&gt;IntelligentEnergy_pipeline_modeling_bare_minimum</title><style>.edge>path:hover{stroke-width:8}</style>
<path fill="none" stroke="black" d="M792.35,-256.98C856.84,-214.88 911.97,-266.22 957.35,-203.98 976.51,-177.71 960.47,-162.47 952.35,-130.98 948.06,-114.36 928.27,-108.88 938.35,-94.98"/>
</g>
<!-- numpy&#45;&gt;matplotlib -->
<g id="edge15" class="edge">
<title>numpy&#45;&gt;matplotlib</title><style>.edge>path:hover{stroke-width:8}</style>
<path fill="none" stroke="black" d="M356.35,-311.98C361.29,-304.47 362.45,-294.96 362.01,-286.08"/>
<polygon fill="#06a8f9" stroke="black" points="365.48,-285.65 360.88,-276.11 358.53,-286.44 365.48,-285.65"/>
</g>
<!-- pandas -->
<g id="node13" class="node">
<title>pandas</title><style>.edge>path:hover{stroke-width:8}</style>
<polygon fill="#0606ef" stroke="black" points="764.35,-203.98 761.35,-207.98 740.35,-207.98 737.35,-203.98 710.35,-203.98 710.35,-167.98 764.35,-167.98 764.35,-203.98"/>
<text text-anchor="middle" x="737.35" y="-183.48" font-family="Helvetica,sans-Serif" font-size="10.00" fill="#ffffff">pandas</text>
</g>
<!-- numpy&#45;&gt;pandas -->
<g id="edge16" class="edge">
<title>numpy&#45;&gt;pandas</title><style>.edge>path:hover{stroke-width:8}</style>
<path fill="none" stroke="black" d="M792.35,-256.98C810.32,-245.25 792.61,-225.65 772.64,-210.17"/>
<polygon fill="#06a8f9" stroke="black" points="774.47,-207.17 764.35,-204.03 770.31,-212.79 774.47,-207.17"/>
<path fill="none" stroke="black" d="M356.35,-311.98C409.94,-230.41 710.62,-312.34 792.35,-258.98"/>
</g>
<!-- pandas&#45;&gt;IntelligentEnergy_pipeline_S1_base_generation -->
<g id="edge17" class="edge">
<title>pandas&#45;&gt;IntelligentEnergy_pipeline_S1_base_generation</title><style>.edge>path:hover{stroke-width:8}</style>
<path fill="none" stroke="black" d="M742.01,-167.9C746.58,-149.92 753.04,-120.71 754.35,-94.98"/>
<path fill="none" stroke="black" d="M754.35,-93.98C755,-88.45 701.47,-68.28 655.59,-52.04"/>
<polygon fill="#0606ef" stroke="black" points="656.53,-48.66 645.94,-48.64 654.21,-55.26 656.53,-48.66"/>
</g>
<!-- pandas&#45;&gt;IntelligentEnergy_pipeline_S2_ft_eng_physics -->
<g id="edge18" class="edge">
<title>pandas&#45;&gt;IntelligentEnergy_pipeline_S2_ft_eng_physics</title><style>.edge>path:hover{stroke-width:8}</style>
<path fill="none" stroke="black" d="M754.35,-93.98C754.77,-85.62 754.95,-76.64 754.98,-68.12"/>
<polygon fill="#0606ef" stroke="black" points="758.48,-68.03 754.96,-58.04 751.48,-68.05 758.48,-68.03"/>
</g>
<!-- pandas&#45;&gt;IntelligentEnergy_pipeline_S3_detection_aggregation -->
<g id="edge19" class="edge">
<title>pandas&#45;&gt;IntelligentEnergy_pipeline_S3_detection_aggregation</title><style>.edge>path:hover{stroke-width:8}</style>
<path fill="none" stroke="black" d="M423.35,-93.98C416.56,-84.32 362.66,-66.3 314.77,-51.84"/>
<polygon fill="#0606ef" stroke="black" points="315.56,-48.42 304.98,-48.9 313.55,-55.13 315.56,-48.42"/>
</g>
<!-- pandas&#45;&gt;IntelligentEnergy_pipeline_S4_ft_eng_math -->
<g id="edge20" class="edge">
<title>pandas&#45;&gt;IntelligentEnergy_pipeline_S4_ft_eng_math</title><style>.edge>path:hover{stroke-width:8}</style>
<path fill="none" stroke="black" d="M710.19,-181.53C640.22,-172 456.95,-142.85 423.35,-94.98"/>
<path fill="none" stroke="black" d="M423.35,-93.98C308.57,-38.06 262.25,-88.78 138.35,-57.98 132.31,-56.48 126.09,-54.64 119.95,-52.62"/>
<polygon fill="#0606ef" stroke="black" points="120.99,-49.27 110.39,-49.32 118.71,-55.89 120.99,-49.27"/>
</g>
<!-- pandas&#45;&gt;IntelligentEnergy_pipeline_S5_approach_alt_modeling -->
<g id="edge21" class="edge">
<title>pandas&#45;&gt;IntelligentEnergy_pipeline_S5_approach_alt_modeling</title><style>.edge>path:hover{stroke-width:8}</style>
<path fill="none" stroke="black" d="M754.35,-93.98C755.05,-88.02 811.91,-68.8 862.06,-52.96"/>
<polygon fill="#0606ef" stroke="black" points="863.16,-56.29 871.65,-49.95 861.06,-49.61 863.16,-56.29"/>
</g>
<!-- pandas&#45;&gt;IntelligentEnergy_pipeline_S6_steam_allocation -->
<g id="edge22" class="edge">
<title>pandas&#45;&gt;IntelligentEnergy_pipeline_S6_steam_allocation</title><style>.edge>path:hover{stroke-width:8}</style>
<path fill="none" stroke="black" d="M423.35,-93.98C418.11,-86.52 416.23,-77.26 416.09,-68.13"/>
<polygon fill="#0606ef" stroke="black" points="419.6,-68.13 416.59,-57.97 412.6,-67.78 419.6,-68.13"/>
</g>
<!-- pandas&#45;&gt;IntelligentEnergy_pipeline_modeling_bare_minimum -->
<g id="edge23" class="edge">
<title>pandas&#45;&gt;IntelligentEnergy_pipeline_modeling_bare_minimum</title><style>.edge>path:hover{stroke-width:8}</style>
<path fill="none" stroke="black" d="M764.6,-169.98C800.46,-150.64 865.81,-116.8 924.35,-93.98 937.75,-88.76 1007.54,-68.08 1063.83,-51.63"/>
<polygon fill="#0606ef" stroke="black" points="1064.83,-54.98 1073.45,-48.82 1062.87,-48.26 1064.83,-54.98"/>
</g>
<!-- seaborn&#45;&gt;IntelligentEnergy_pipeline_S4_ft_eng_math -->
<g id="edge24" class="edge">
<title>seaborn&#45;&gt;IntelligentEnergy_pipeline_S4_ft_eng_math</title><style>.edge>path:hover{stroke-width:8}</style>
<path fill="none" stroke="black" d="M357.73,-167.89C359.54,-148.86 359.91,-117.79 347.35,-94.98"/>
<path fill="none" stroke="black" d="M347.35,-93.98C318.91,-56.4 183.82,-70.38 138.35,-57.98 132.57,-56.41 126.62,-54.56 120.72,-52.58"/>
<polygon fill="#9724d0" stroke="black" points="121.47,-49.13 110.88,-49.13 119.16,-55.74 121.47,-49.13"/>
</g>
<!-- seaborn&#45;&gt;IntelligentEnergy_pipeline_S5_approach_alt_modeling -->
<g id="edge25" class="edge">
<title>seaborn&#45;&gt;IntelligentEnergy_pipeline_S5_approach_alt_modeling</title><style>.edge>path:hover{stroke-width:8}</style>
<path fill="none" stroke="black" d="M382.37,-177.88C455.32,-158.69 662.35,-104.16 834.35,-57.98 842.11,-55.9 850.2,-53.72 858.28,-51.53"/>
<polygon fill="#9724d0" stroke="black" points="859.37,-54.86 868.11,-48.87 857.54,-48.11 859.37,-54.86"/>
</g>
<!-- seaborn&#45;&gt;IntelligentEnergy_pipeline_S6_steam_allocation -->
<g id="edge26" class="edge">
<title>seaborn&#45;&gt;IntelligentEnergy_pipeline_S6_steam_allocation</title><style>.edge>path:hover{stroke-width:8}</style>
<path fill="none" stroke="black" d="M347.35,-93.98C339.13,-79.07 348.56,-66.14 363.23,-55.88"/>
<polygon fill="#9724d0" stroke="black" points="365.25,-58.75 371.85,-50.47 361.52,-52.83 365.25,-58.75"/>
</g>
<!-- sympy -->
<g id="node15" class="node">
<title>sympy</title><style>.edge>path:hover{stroke-width:8}</style>
<polygon fill="#c04095" stroke="black" points="234.35,-203.98 231.35,-207.98 210.35,-207.98 207.35,-203.98 180.35,-203.98 180.35,-167.98 234.35,-167.98 234.35,-203.98"/>
<text text-anchor="middle" x="207.35" y="-183.48" font-family="Helvetica,sans-Serif" font-size="10.00" fill="#ffffff">sympy</text>
</g>
<!-- sympy&#45;&gt;IntelligentEnergy_pipeline_S4_ft_eng_math -->
<g id="edge27" class="edge">
<title>sympy&#45;&gt;IntelligentEnergy_pipeline_S4_ft_eng_math</title><style>.edge>path:hover{stroke-width:8}</style>
<path fill="none" stroke="black" d="M207.82,-167.78C207.98,-157.41 207.99,-143.93 207.35,-131.98"/>
</g>
</g>
</svg>
