<?xml version="1.0" encoding="UTF-8" standalone="no"?>
<!DOCTYPE svg PUBLIC "-//W3C//DTD SVG 1.1//EN"
 "http://www.w3.org/Graphics/SVG/1.1/DTD/svg11.dtd">
<!-- Generated by graphviz version 2.44.1 (20200629.0846)
 -->
<!-- Title: G Pages: 1 -->
<svg width="1134pt" height="607pt"
 viewBox="0.00 0.00 1134.26 606.82" xmlns="http://www.w3.org/2000/svg" xmlns:xlink="http://www.w3.org/1999/xlink">
<g id="graph0" class="graph" transform="scale(1 1) rotate(0) translate(4 602.82)">
<title>G</title><style>.edge>path:hover{stroke-width:8}</style>
<polygon fill="white" stroke="transparent" points="-4,4 -4,-602.82 1130.26,-602.82 1130.26,4 -4,4"/>
<!-- IntelligentEnergy_pipeline_S1_base_generation -->
<g id="node1" class="node">
<title>IntelligentEnergy_pipeline_S1_base_generation</title><style>.edge>path:hover{stroke-width:8}</style>
<ellipse fill="#b34c4c" stroke="black" cx="542.82" cy="-122.97" rx="74.49" ry="28.98"/>
<text text-anchor="middle" x="542.82" y="-131.47" font-family="Helvetica,sans-Serif" font-size="10.00" fill="#ffffff">IntelligentEnergy.</text>
<text text-anchor="middle" x="542.82" y="-120.47" font-family="Helvetica,sans-Serif" font-size="10.00" fill="#ffffff">pipeline.</text>
<text text-anchor="middle" x="542.82" y="-109.47" font-family="Helvetica,sans-Serif" font-size="10.00" fill="#ffffff">S1_base_generation</text>
</g>
<!-- IntelligentEnergy_pipeline_S2_ft_eng_physics -->
<g id="node2" class="node">
<title>IntelligentEnergy_pipeline_S2_ft_eng_physics</title><style>.edge>path:hover{stroke-width:8}</style>
<ellipse fill="#b34c4c" stroke="black" cx="379.82" cy="-122.97" rx="70.92" ry="28.98"/>
<text text-anchor="middle" x="379.82" y="-131.47" font-family="Helvetica,sans-Serif" font-size="10.00" fill="#ffffff">IntelligentEnergy.</text>
<text text-anchor="middle" x="379.82" y="-120.47" font-family="Helvetica,sans-Serif" font-size="10.00" fill="#ffffff">pipeline.</text>
<text text-anchor="middle" x="379.82" y="-109.47" font-family="Helvetica,sans-Serif" font-size="10.00" fill="#ffffff">S2_ft_eng_physics</text>
</g>
<!-- IntelligentEnergy_pipeline_S3_detection_aggregation -->
<g id="node3" class="node">
<title>IntelligentEnergy_pipeline_S3_detection_aggregation</title><style>.edge>path:hover{stroke-width:8}</style>
<ellipse fill="#964040" stroke="black" cx="915.82" cy="-122.97" rx="91.43" ry="28.98"/>
<text text-anchor="middle" x="915.82" y="-131.47" font-family="Helvetica,sans-Serif" font-size="10.00" fill="#ffffff">IntelligentEnergy.</text>
<text text-anchor="middle" x="915.82" y="-120.47" font-family="Helvetica,sans-Serif" font-size="10.00" fill="#ffffff">pipeline.</text>
<text text-anchor="middle" x="915.82" y="-109.47" font-family="Helvetica,sans-Serif" font-size="10.00" fill="#ffffff">S3_detection_aggregation</text>
</g>
<!-- IntelligentEnergy_pipeline_S4_ft_eng_math -->
<g id="node4" class="node">
<title>IntelligentEnergy_pipeline_S4_ft_eng_math</title><style>.edge>path:hover{stroke-width:8}</style>
<ellipse fill="#883a3a" stroke="black" cx="840.82" cy="-28.99" rx="64.19" ry="28.98"/>
<text text-anchor="middle" x="840.82" y="-37.49" font-family="Helvetica,sans-Serif" font-size="10.00" fill="#ffffff">IntelligentEnergy.</text>
<text text-anchor="middle" x="840.82" y="-26.49" font-family="Helvetica,sans-Serif" font-size="10.00" fill="#ffffff">pipeline.</text>
<text text-anchor="middle" x="840.82" y="-15.49" font-family="Helvetica,sans-Serif" font-size="10.00" fill="#ffffff">S4_ft_eng_math</text>
</g>
<!-- IntelligentEnergy_pipeline_S5_approach_alt_modeling -->
<g id="node5" class="node">
<title>IntelligentEnergy_pipeline_S5_approach_alt_modeling</title><style>.edge>path:hover{stroke-width:8}</style>
<ellipse fill="#723131" stroke="black" cx="339.82" cy="-28.99" rx="94.51" ry="28.98"/>
<text text-anchor="middle" x="339.82" y="-37.49" font-family="Helvetica,sans-Serif" font-size="10.00" fill="#ffffff">IntelligentEnergy.</text>
<text text-anchor="middle" x="339.82" y="-26.49" font-family="Helvetica,sans-Serif" font-size="10.00" fill="#ffffff">pipeline.</text>
<text text-anchor="middle" x="339.82" y="-15.49" font-family="Helvetica,sans-Serif" font-size="10.00" fill="#ffffff">S5_approach_alt_modeling</text>
</g>
<!-- IntelligentEnergy_pipeline_S6_steam_allocation -->
<g id="node6" class="node">
<title>IntelligentEnergy_pipeline_S6_steam_allocation</title><style>.edge>path:hover{stroke-width:8}</style>
<ellipse fill="#9d4343" stroke="black" cx="682.82" cy="-28.99" rx="75.82" ry="28.98"/>
<text text-anchor="middle" x="682.82" y="-37.49" font-family="Helvetica,sans-Serif" font-size="10.00" fill="#ffffff">IntelligentEnergy.</text>
<text text-anchor="middle" x="682.82" y="-26.49" font-family="Helvetica,sans-Serif" font-size="10.00" fill="#ffffff">pipeline.</text>
<text text-anchor="middle" x="682.82" y="-15.49" font-family="Helvetica,sans-Serif" font-size="10.00" fill="#ffffff">S6_steam_allocation</text>
</g>
<!-- IntelligentEnergy_pipeline_modeling_bare_minimum -->
<g id="node7" class="node">
<title>IntelligentEnergy_pipeline_modeling_bare_minimum</title><style>.edge>path:hover{stroke-width:8}</style>
<ellipse fill="#8f3d3d" stroke="black" cx="138.82" cy="-28.99" rx="88.28" ry="28.98"/>
<text text-anchor="middle" x="138.82" y="-37.49" font-family="Helvetica,sans-Serif" font-size="10.00" fill="#ffffff">IntelligentEnergy.</text>
<text text-anchor="middle" x="138.82" y="-26.49" font-family="Helvetica,sans-Serif" font-size="10.00" fill="#ffffff">pipeline.</text>
<text text-anchor="middle" x="138.82" y="-15.49" font-family="Helvetica,sans-Serif" font-size="10.00" fill="#ffffff">modeling_bare_minimum</text>
</g>
<!-- autofeat -->
<g id="node8" class="node">
<title>autofeat</title><style>.edge>path:hover{stroke-width:8}</style>
<ellipse fill="#b69553" stroke="black" cx="1081.82" cy="-242.97" rx="30.72" ry="18"/>
<text text-anchor="middle" x="1081.82" y="-240.47" font-family="Helvetica,sans-Serif" font-size="10.00" fill="#000000">autofeat</text>
</g>
<!-- autofeat&#45;&gt;IntelligentEnergy_pipeline_S4_ft_eng_math -->
<g id="edge1" class="edge">
<title>autofeat&#45;&gt;IntelligentEnergy_pipeline_S4_ft_eng_math</title><style>.edge>path:hover{stroke-width:8}</style>
<path fill="none" stroke="black" d="M1079.31,-224.88C1078.37,-214.3 1078.25,-200.58 1081.82,-188.97"/>
</g>
<!-- colorama -->
<g id="node9" class="node">
<title>colorama</title><style>.edge>path:hover{stroke-width:8}</style>
<ellipse fill="#99c247" stroke="black" cx="62.82" cy="-242.97" rx="32.93" ry="18"/>
<text text-anchor="middle" x="62.82" y="-240.47" font-family="Helvetica,sans-Serif" font-size="10.00" fill="#000000">colorama</text>
</g>
<!-- colorama&#45;&gt;IntelligentEnergy_pipeline_S5_approach_alt_modeling -->
<g id="edge2" class="edge">
<title>colorama&#45;&gt;IntelligentEnergy_pipeline_S5_approach_alt_modeling</title><style>.edge>path:hover{stroke-width:8}</style>
<path fill="none" stroke="black" d="M138.82,-187.97C177.62,-133.1 240.83,-87.87 286.01,-60.08"/>
<polygon fill="#99c247" stroke="black" points="288.06,-62.93 294.79,-54.75 284.43,-56.94 288.06,-62.93"/>
</g>
<!-- colorama&#45;&gt;IntelligentEnergy_pipeline_modeling_bare_minimum -->
<g id="edge3" class="edge">
<title>colorama&#45;&gt;IntelligentEnergy_pipeline_modeling_bare_minimum</title><style>.edge>path:hover{stroke-width:8}</style>
<path fill="none" stroke="black" d="M87.12,-230.7C104,-221.68 125.73,-207.48 138.82,-188.97"/>
<path fill="none" stroke="black" d="M138.82,-187.97C155.24,-164.74 135.83,-152.26 138.82,-123.97"/>
</g>
<!-- h2o -->
<g id="node10" class="node">
<title>h2o</title><style>.edge>path:hover{stroke-width:8}</style>
<ellipse fill="#33cc33" stroke="black" cx="294.82" cy="-242.97" rx="27" ry="18"/>
<text text-anchor="middle" x="294.82" y="-240.47" font-family="Helvetica,sans-Serif" font-size="10.00" fill="#000000">h2o</text>
</g>
<!-- h2o&#45;&gt;IntelligentEnergy_pipeline_S5_approach_alt_modeling -->
<g id="edge4" class="edge">
<title>h2o&#45;&gt;IntelligentEnergy_pipeline_S5_approach_alt_modeling</title><style>.edge>path:hover{stroke-width:8}</style>
<path fill="none" stroke="black" d="M296.46,-224.62C297.05,-214.2 297.08,-200.71 294.82,-188.97"/>
</g>
<!-- h2o&#45;&gt;IntelligentEnergy_pipeline_modeling_bare_minimum -->
<g id="edge5" class="edge">
<title>h2o&#45;&gt;IntelligentEnergy_pipeline_modeling_bare_minimum</title><style>.edge>path:hover{stroke-width:8}</style>
<path fill="none" stroke="black" d="M256.82,-187.97C227.79,-144.63 191.51,-96.91 166.9,-65.38"/>
<polygon fill="#33cc33" stroke="black" points="169.52,-63.05 160.59,-57.33 164,-67.36 169.52,-63.05"/>
<path fill="none" stroke="black" d="M285.43,-226.05C278.4,-214.92 268.09,-200.11 256.82,-188.97"/>
</g>
<!-- h2o_automl -->
<g id="node11" class="node">
<title>h2o_automl</title><style>.edge>path:hover{stroke-width:8}</style>
<ellipse fill="#47c247" stroke="black" cx="377.82" cy="-242.97" rx="38.03" ry="18"/>
<text text-anchor="middle" x="377.82" y="-240.47" font-family="Helvetica,sans-Serif" font-size="10.00" fill="#000000">h2o.automl</text>
</g>
<!-- h2o_automl&#45;&gt;IntelligentEnergy_pipeline_S5_approach_alt_modeling -->
<g id="edge6" class="edge">
<title>h2o_automl&#45;&gt;IntelligentEnergy_pipeline_S5_approach_alt_modeling</title><style>.edge>path:hover{stroke-width:8}</style>
<path fill="none" stroke="black" d="M350.88,-230.02C327.61,-218.88 297.34,-202.06 294.82,-188.97"/>
</g>
<!-- h2o_automl&#45;&gt;IntelligentEnergy_pipeline_modeling_bare_minimum -->
<g id="edge7" class="edge">
<title>h2o_automl&#45;&gt;IntelligentEnergy_pipeline_modeling_bare_minimum</title><style>.edge>path:hover{stroke-width:8}</style>
<path fill="none" stroke="black" d="M349.55,-230.83C316.05,-217.44 263.83,-195.9 256.82,-188.97"/>
</g>
<!-- h2o_exceptions -->
<g id="node12" class="node">
<title>h2o_exceptions</title><style>.edge>path:hover{stroke-width:8}</style>
<ellipse fill="#47c247" stroke="black" cx="162.82" cy="-242.97" rx="48.72" ry="18"/>
<text text-anchor="middle" x="162.82" y="-240.47" font-family="Helvetica,sans-Serif" font-size="10.00" fill="#000000">h2o.exceptions</text>
</g>
<!-- h2o_exceptions&#45;&gt;IntelligentEnergy_pipeline_S5_approach_alt_modeling -->
<g id="edge8" class="edge">
<title>h2o_exceptions&#45;&gt;IntelligentEnergy_pipeline_S5_approach_alt_modeling</title><style>.edge>path:hover{stroke-width:8}</style>
<path fill="none" stroke="black" d="M176.82,-187.97C195.89,-137.16 267.01,-176.46 280.82,-123.97"/>
<path fill="none" stroke="black" d="M280.82,-121.97C286.21,-101.51 298.11,-81.41 309.81,-65.25"/>
<polygon fill="#47c247" stroke="black" points="312.67,-67.27 315.88,-57.18 307.08,-63.07 312.67,-67.27"/>
</g>
<!-- h2o_exceptions&#45;&gt;IntelligentEnergy_pipeline_modeling_bare_minimum -->
<g id="edge9" class="edge">
<title>h2o_exceptions&#45;&gt;IntelligentEnergy_pipeline_modeling_bare_minimum</title><style>.edge>path:hover{stroke-width:8}</style>
<path fill="none" stroke="black" d="M166.39,-224.99C168.82,-214.45 172.41,-200.73 176.82,-188.97"/>
<path fill="none" stroke="black" d="M176.82,-187.97C188.45,-157 135.35,-156.87 138.82,-123.97"/>
</g>
<!-- matplotlib -->
<g id="node13" class="node">
<title>matplotlib</title><style>.edge>path:hover{stroke-width:8}</style>
<ellipse fill="#05e59b" stroke="black" cx="768.82" cy="-314.97" rx="34.96" ry="18"/>
<text text-anchor="middle" x="768.82" y="-312.47" font-family="Helvetica,sans-Serif" font-size="10.00" fill="#000000">matplotlib</text>
</g>
<!-- matplotlib&#45;&gt;IntelligentEnergy_pipeline_S3_detection_aggregation -->
<g id="edge10" class="edge">
<title>matplotlib&#45;&gt;IntelligentEnergy_pipeline_S3_detection_aggregation</title><style>.edge>path:hover{stroke-width:8}</style>
<path fill="none" stroke="black" d="M874.82,-187.97C873.42,-177.87 876.6,-168.04 881.72,-159.23"/>
<polygon fill="#05e59b" stroke="black" points="884.72,-161.05 887.39,-150.8 878.91,-157.15 884.72,-161.05"/>
</g>
<!-- matplotlib&#45;&gt;IntelligentEnergy_pipeline_S4_ft_eng_math -->
<g id="edge11" class="edge">
<title>matplotlib&#45;&gt;IntelligentEnergy_pipeline_S4_ft_eng_math</title><style>.edge>path:hover{stroke-width:8}</style>
<path fill="none" stroke="black" d="M874.82,-187.97C870.61,-157.54 838.06,-173.15 815.82,-151.97 804.94,-141.59 793.67,-138.68 796.82,-123.97"/>
<path fill="none" stroke="black" d="M792.05,-301.53C825.35,-281.8 881.93,-240.26 874.82,-188.97"/>
</g>
<!-- matplotlib&#45;&gt;IntelligentEnergy_pipeline_S5_approach_alt_modeling -->
<g id="edge12" class="edge">
<title>matplotlib&#45;&gt;IntelligentEnergy_pipeline_S5_approach_alt_modeling</title><style>.edge>path:hover{stroke-width:8}</style>
<path fill="none" stroke="black" d="M682.82,-241.97C653.57,-212.98 608.53,-230.11 606.82,-188.97"/>
<path fill="none" stroke="black" d="M749.47,-299.94C731.42,-286.47 704.16,-265.1 682.82,-243.97"/>
</g>
<!-- matplotlib&#45;&gt;IntelligentEnergy_pipeline_S6_steam_allocation -->
<g id="edge13" class="edge">
<title>matplotlib&#45;&gt;IntelligentEnergy_pipeline_S6_steam_allocation</title><style>.edge>path:hover{stroke-width:8}</style>
<path fill="none" stroke="black" d="M682.82,-241.97C647.41,-203.29 673.2,-175.52 682.82,-123.97"/>
</g>
<!-- seaborn -->
<g id="node19" class="node">
<title>seaborn</title><style>.edge>path:hover{stroke-width:8}</style>
<ellipse fill="#9724d0" stroke="black" cx="740.82" cy="-242.97" rx="30.04" ry="18"/>
<text text-anchor="middle" x="740.82" y="-240.47" font-family="Helvetica,sans-Serif" font-size="10.00" fill="#ffffff">seaborn</text>
</g>
<!-- matplotlib&#45;&gt;seaborn -->
<g id="edge14" class="edge">
<title>matplotlib&#45;&gt;seaborn</title><style>.edge>path:hover{stroke-width:8}</style>
<path fill="none" stroke="black" d="M762.04,-297.02C758.81,-288.94 754.87,-279.09 751.27,-270.08"/>
<polygon fill="#05e59b" stroke="black" points="754.5,-268.74 747.54,-260.75 748,-271.34 754.5,-268.74"/>
</g>
<!-- matplotlib_cm -->
<g id="node14" class="node">
<title>matplotlib_cm</title><style>.edge>path:hover{stroke-width:8}</style>
<ellipse fill="#3db88f" stroke="black" cx="912.82" cy="-468.61" rx="44.3" ry="18"/>
<text text-anchor="middle" x="912.82" y="-466.11" font-family="Helvetica,sans-Serif" font-size="10.00" fill="#000000">matplotlib.cm</text>
</g>
<!-- matplotlib_cm&#45;&gt;IntelligentEnergy_pipeline_S3_detection_aggregation -->
<g id="edge15" class="edge">
<title>matplotlib_cm&#45;&gt;IntelligentEnergy_pipeline_S3_detection_aggregation</title><style>.edge>path:hover{stroke-width:8}</style>
<path fill="none" stroke="black" d="M910.74,-450.38C909.35,-434.74 908.46,-411.14 912.82,-391.18"/>
</g>
<!-- matplotlib_pyplot -->
<g id="node16" class="node">
<title>matplotlib_pyplot</title><style>.edge>path:hover{stroke-width:8}</style>
<ellipse fill="#16ca8e" stroke="black" cx="840.82" cy="-390.18" rx="43.68" ry="21.43"/>
<text text-anchor="middle" x="840.82" y="-393.18" font-family="Helvetica,sans-Serif" font-size="10.00" fill="#000000">matplotlib.</text>
<text text-anchor="middle" x="840.82" y="-382.18" font-family="Helvetica,sans-Serif" font-size="10.00" fill="#000000">pyplot</text>
</g>
<!-- matplotlib_cm&#45;&gt;matplotlib_pyplot -->
<g id="edge16" class="edge">
<title>matplotlib_cm&#45;&gt;matplotlib_pyplot</title><style>.edge>path:hover{stroke-width:8}</style>
<path fill="none" stroke="black" d="M897.55,-451.4C888.23,-441.5 876.09,-428.62 865.44,-417.31"/>
<polygon fill="#3db88f" stroke="black" points="867.75,-414.66 858.35,-409.78 862.66,-419.46 867.75,-414.66"/>
</g>
<!-- matplotlib_patches -->
<g id="node15" class="node">
<title>matplotlib_patches</title><style>.edge>path:hover{stroke-width:8}</style>
<ellipse fill="#3db88f" stroke="black" cx="768.82" cy="-468.61" rx="43.68" ry="21.43"/>
<text text-anchor="middle" x="768.82" y="-471.61" font-family="Helvetica,sans-Serif" font-size="10.00" fill="#000000">matplotlib.</text>
<text text-anchor="middle" x="768.82" y="-460.61" font-family="Helvetica,sans-Serif" font-size="10.00" fill="#000000">patches</text>
</g>
<!-- matplotlib_patches&#45;&gt;IntelligentEnergy_pipeline_S5_approach_alt_modeling -->
<g id="edge17" class="edge">
<title>matplotlib_patches&#45;&gt;IntelligentEnergy_pipeline_S5_approach_alt_modeling</title><style>.edge>path:hover{stroke-width:8}</style>
<path fill="none" stroke="black" d="M644.82,-121.97C638.26,-108.44 638.25,-102.44 625.82,-93.98 572.44,-57.68 501.72,-41.64 443.96,-34.7"/>
<polygon fill="#3db88f" stroke="black" points="444.03,-31.18 433.7,-33.54 443.25,-38.14 444.03,-31.18"/>
<path fill="none" stroke="black" d="M727.91,-460.8C659.86,-446.88 530.82,-408.32 530.82,-315.97 530.82,-315.97 530.82,-315.97 530.82,-241.97 530.82,-169.05 676.63,-189.59 644.82,-123.97"/>
</g>
<!-- matplotlib_patches&#45;&gt;matplotlib_pyplot -->
<g id="edge18" class="edge">
<title>matplotlib_patches&#45;&gt;matplotlib_pyplot</title><style>.edge>path:hover{stroke-width:8}</style>
<path fill="none" stroke="black" d="M786.25,-449.1C795.29,-439.51 806.49,-427.62 816.38,-417.12"/>
<polygon fill="#3db88f" stroke="black" points="818.99,-419.45 823.3,-409.77 813.9,-414.65 818.99,-419.45"/>
</g>
<!-- matplotlib_pyplot&#45;&gt;IntelligentEnergy_pipeline_S3_detection_aggregation -->
<g id="edge19" class="edge">
<title>matplotlib_pyplot&#45;&gt;IntelligentEnergy_pipeline_S3_detection_aggregation</title><style>.edge>path:hover{stroke-width:8}</style>
<path fill="none" stroke="black" d="M912.82,-241.97C916.25,-215.53 916.97,-185.5 916.85,-162.35"/>
<polygon fill="#16ca8e" stroke="black" points="920.35,-162.19 916.74,-152.23 913.35,-162.27 920.35,-162.19"/>
<path fill="none" stroke="black" d="M874.82,-313.97C885.26,-280.14 907.3,-278.93 912.82,-243.97"/>
</g>
<!-- matplotlib_pyplot&#45;&gt;IntelligentEnergy_pipeline_S4_ft_eng_math -->
<g id="edge20" class="edge">
<title>matplotlib_pyplot&#45;&gt;IntelligentEnergy_pipeline_S4_ft_eng_math</title><style>.edge>path:hover{stroke-width:8}</style>
<path fill="none" stroke="black" d="M1081.82,-187.97C1107.12,-105.65 989.43,-62.61 909.61,-43.24"/>
<polygon fill="#16ca8e" stroke="black" points="910.13,-39.77 899.59,-40.89 908.52,-46.58 910.13,-39.77"/>
<path fill="none" stroke="black" d="M874.82,-313.97C876.95,-307.06 963.59,-228.63 969.82,-224.97 1014.88,-198.45 1074.37,-240.72 1081.82,-188.97"/>
</g>
<!-- matplotlib_pyplot&#45;&gt;IntelligentEnergy_pipeline_S5_approach_alt_modeling -->
<g id="edge21" class="edge">
<title>matplotlib_pyplot&#45;&gt;IntelligentEnergy_pipeline_S5_approach_alt_modeling</title><style>.edge>path:hover{stroke-width:8}</style>
<path fill="none" stroke="black" d="M606.82,-187.97C605.45,-154.92 659.25,-153.74 644.82,-123.97"/>
<path fill="none" stroke="black" d="M805.56,-377.32C741.25,-353.19 611.1,-291.8 606.82,-188.97"/>
</g>
<!-- matplotlib_pyplot&#45;&gt;IntelligentEnergy_pipeline_S6_steam_allocation -->
<g id="edge22" class="edge">
<title>matplotlib_pyplot&#45;&gt;IntelligentEnergy_pipeline_S6_steam_allocation</title><style>.edge>path:hover{stroke-width:8}</style>
<path fill="none" stroke="black" d="M851.76,-369.58C859.35,-355.16 869.08,-334.87 874.82,-315.97"/>
<path fill="none" stroke="black" d="M874.82,-313.97C883.3,-286.06 766.21,-134.38 710.89,-64.85"/>
<polygon fill="#16ca8e" stroke="black" points="713.43,-62.42 704.46,-56.79 707.96,-66.79 713.43,-62.42"/>
</g>
<!-- matplotlib_pyplot&#45;&gt;matplotlib -->
<g id="edge23" class="edge">
<title>matplotlib_pyplot&#45;&gt;matplotlib</title><style>.edge>path:hover{stroke-width:8}</style>
<path fill="none" stroke="black" d="M822.65,-370.7C813,-360.89 801.06,-348.74 790.87,-338.39"/>
<polygon fill="#16ca8e" stroke="black" points="793.34,-335.9 783.83,-331.22 788.34,-340.81 793.34,-335.9"/>
</g>
<!-- numpy -->
<g id="node17" class="node">
<title>numpy</title><style>.edge>path:hover{stroke-width:8}</style>
<ellipse fill="#06a8f9" stroke="black" cx="840.82" cy="-580.82" rx="27.16" ry="18"/>
<text text-anchor="middle" x="840.82" y="-578.32" font-family="Helvetica,sans-Serif" font-size="10.00" fill="#000000">numpy</text>
</g>
<!-- numpy&#45;&gt;IntelligentEnergy_pipeline_S3_detection_aggregation -->
<g id="edge24" class="edge">
<title>numpy&#45;&gt;IntelligentEnergy_pipeline_S3_detection_aggregation</title><style>.edge>path:hover{stroke-width:8}</style>
<path fill="none" stroke="black" d="M912.82,-389.18C926.6,-326.13 902.76,-307.72 912.82,-243.97"/>
<path fill="none" stroke="black" d="M840.82,-467.61C842.01,-420.95 902.56,-436.7 912.82,-391.18"/>
</g>
<!-- numpy&#45;&gt;IntelligentEnergy_pipeline_S4_ft_eng_math -->
<g id="edge25" class="edge">
<title>numpy&#45;&gt;IntelligentEnergy_pipeline_S4_ft_eng_math</title><style>.edge>path:hover{stroke-width:8}</style>
<path fill="none" stroke="black" d="M840.82,-525.82C824.03,-470.5 918.99,-523.71 965.82,-489.82 1065.54,-417.65 1085.54,-378.59 1121.82,-260.97 1126.54,-245.68 1128.33,-239.58 1121.82,-224.97 1112.09,-203.12 1078.34,-212.63 1081.82,-188.97"/>
</g>
<!-- numpy&#45;&gt;IntelligentEnergy_pipeline_S5_approach_alt_modeling -->
<g id="edge26" class="edge">
<title>numpy&#45;&gt;IntelligentEnergy_pipeline_S5_approach_alt_modeling</title><style>.edge>path:hover{stroke-width:8}</style>
<path fill="none" stroke="black" d="M294.82,-187.97C289.32,-159.38 273.41,-152.13 280.82,-123.97"/>
<path fill="none" stroke="black" d="M239.82,-313.97C209.88,-286.77 239.51,-260.5 258.82,-224.97 269.63,-205.08 299.1,-211.19 294.82,-188.97"/>
</g>
<!-- numpy&#45;&gt;IntelligentEnergy_pipeline_modeling_bare_minimum -->
<g id="edge27" class="edge">
<title>numpy&#45;&gt;IntelligentEnergy_pipeline_modeling_bare_minimum</title><style>.edge>path:hover{stroke-width:8}</style>
<path fill="none" stroke="black" d="M1.82,-241.97C-18.01,-164.09 130.38,-203.89 138.82,-123.97"/>
<path fill="none" stroke="black" d="M138.82,-121.97C141.29,-104.6 141.64,-85.18 141.23,-68.69"/>
<polygon fill="#06a8f9" stroke="black" points="144.72,-68.19 140.87,-58.32 137.72,-68.43 144.72,-68.19"/>
<path fill="none" stroke="black" d="M840.82,-525.82C836.42,-510.86 306.83,-402.23 295.82,-391.18"/>
<path fill="none" stroke="black" d="M295.82,-389.18C265.14,-362.04 269.91,-343.77 239.82,-315.97"/>
<path fill="none" stroke="black" d="M841.78,-562.58C842.12,-552.19 842.14,-538.71 840.82,-526.82"/>
<path fill="none" stroke="black" d="M239.82,-313.97C158.85,-239.13 37.02,-348.45 1.82,-243.97"/>
</g>
<!-- numpy&#45;&gt;matplotlib -->
<g id="edge28" class="edge">
<title>numpy&#45;&gt;matplotlib</title><style>.edge>path:hover{stroke-width:8}</style>
<path fill="none" stroke="black" d="M840.82,-525.82C833.56,-501.91 840.82,-494.59 840.82,-469.61"/>
<path fill="none" stroke="black" d="M840.82,-467.61C840.82,-433.27 803.58,-441.9 787.82,-411.39 776.84,-390.12 772.19,-363.14 770.23,-343.31"/>
<polygon fill="#06a8f9" stroke="black" points="773.7,-342.78 769.4,-333.1 766.72,-343.35 773.7,-342.78"/>
</g>
<!-- numpy&#45;&gt;matplotlib_cm -->
<g id="edge29" class="edge">
<title>numpy&#45;&gt;matplotlib_cm</title><style>.edge>path:hover{stroke-width:8}</style>
<path fill="none" stroke="black" d="M840.82,-525.82C835.2,-507.3 851.3,-493.66 869.69,-484.46"/>
<polygon fill="#06a8f9" stroke="black" points="871.17,-487.63 878.81,-480.3 868.26,-481.27 871.17,-487.63"/>
</g>
<!-- numpy&#45;&gt;matplotlib_patches -->
<g id="edge30" class="edge">
<title>numpy&#45;&gt;matplotlib_patches</title><style>.edge>path:hover{stroke-width:8}</style>
<path fill="none" stroke="black" d="M840.82,-525.82C836.02,-510.01 823.21,-497.76 809.69,-488.79"/>
<polygon fill="#06a8f9" stroke="black" points="811.15,-485.58 800.79,-483.36 807.51,-491.55 811.15,-485.58"/>
</g>
<!-- numpy&#45;&gt;matplotlib_pyplot -->
<g id="edge31" class="edge">
<title>numpy&#45;&gt;matplotlib_pyplot</title><style>.edge>path:hover{stroke-width:8}</style>
<path fill="none" stroke="black" d="M840.82,-467.61C840.82,-452.49 840.82,-435.68 840.82,-421.69"/>
<polygon fill="#06a8f9" stroke="black" points="844.32,-421.61 840.82,-411.61 837.32,-421.61 844.32,-421.61"/>
</g>
<!-- pandas -->
<g id="node18" class="node">
<title>pandas</title><style>.edge>path:hover{stroke-width:8}</style>
<ellipse fill="#0606ef" stroke="black" cx="295.82" cy="-314.97" rx="28.01" ry="18"/>
<text text-anchor="middle" x="295.82" y="-312.47" font-family="Helvetica,sans-Serif" font-size="10.00" fill="#ffffff">pandas</text>
</g>
<!-- numpy&#45;&gt;pandas -->
<g id="edge32" class="edge">
<title>numpy&#45;&gt;pandas</title><style>.edge>path:hover{stroke-width:8}</style>
<path fill="none" stroke="black" d="M295.82,-389.18C283.98,-377.28 284.35,-358.18 287.49,-342.46"/>
<polygon fill="#06a8f9" stroke="black" points="290.9,-343.28 289.86,-332.74 284.09,-341.63 290.9,-343.28"/>
</g>
<!-- pandas&#45;&gt;IntelligentEnergy_pipeline_S1_base_generation -->
<g id="edge33" class="edge">
<title>pandas&#45;&gt;IntelligentEnergy_pipeline_S1_base_generation</title><style>.edge>path:hover{stroke-width:8}</style>
<path fill="none" stroke="black" d="M379.82,-187.97C378.31,-182.61 431.96,-162.41 478.11,-146.12"/>
<polygon fill="#0606ef" stroke="black" points="479.54,-149.32 487.82,-142.71 477.22,-142.72 479.54,-149.32"/>
</g>
<!-- pandas&#45;&gt;IntelligentEnergy_pipeline_S2_ft_eng_physics -->
<g id="edge34" class="edge">
<title>pandas&#45;&gt;IntelligentEnergy_pipeline_S2_ft_eng_physics</title><style>.edge>path:hover{stroke-width:8}</style>
<path fill="none" stroke="black" d="M379.82,-187.97C377.53,-179.83 376.59,-170.88 376.42,-162.32"/>
<polygon fill="#0606ef" stroke="black" points="379.92,-162.19 376.54,-152.15 372.92,-162.1 379.92,-162.19"/>
</g>
<!-- pandas&#45;&gt;IntelligentEnergy_pipeline_S3_detection_aggregation -->
<g id="edge35" class="edge">
<title>pandas&#45;&gt;IntelligentEnergy_pipeline_S3_detection_aggregation</title><style>.edge>path:hover{stroke-width:8}</style>
<path fill="none" stroke="black" d="M324.05,-313.32C414.87,-310.88 698.34,-300.23 779.82,-260.97 804.73,-248.96 854.04,-195.51 885.94,-159.03"/>
<polygon fill="#0606ef" stroke="black" points="888.94,-160.92 892.86,-151.08 883.66,-156.33 888.94,-160.92"/>
</g>
<!-- pandas&#45;&gt;IntelligentEnergy_pipeline_S4_ft_eng_math -->
<g id="edge36" class="edge">
<title>pandas&#45;&gt;IntelligentEnergy_pipeline_S4_ft_eng_math</title><style>.edge>path:hover{stroke-width:8}</style>
<path fill="none" stroke="black" d="M323.5,-310.45C367.02,-304.26 453.53,-289.33 521.82,-260.97 638.22,-212.62 752.38,-114.14 807.18,-62.8"/>
<polygon fill="#0606ef" stroke="black" points="809.65,-65.28 814.51,-55.87 804.84,-60.19 809.65,-65.28"/>
</g>
<!-- pandas&#45;&gt;IntelligentEnergy_pipeline_S5_approach_alt_modeling -->
<g id="edge37" class="edge">
<title>pandas&#45;&gt;IntelligentEnergy_pipeline_S5_approach_alt_modeling</title><style>.edge>path:hover{stroke-width:8}</style>
<path fill="none" stroke="black" d="M323.59,-311.38C354.27,-306.87 402.31,-294.55 424.82,-260.97 433.73,-247.67 431.75,-239.39 424.82,-224.97 413.73,-201.88 386.78,-213.61 379.82,-188.97"/>
<path fill="none" stroke="black" d="M379.82,-187.97C369.23,-136.66 267.48,-174.64 280.82,-123.97"/>
</g>
<!-- pandas&#45;&gt;IntelligentEnergy_pipeline_S6_steam_allocation -->
<g id="edge38" class="edge">
<title>pandas&#45;&gt;IntelligentEnergy_pipeline_S6_steam_allocation</title><style>.edge>path:hover{stroke-width:8}</style>
<path fill="none" stroke="black" d="M682.82,-121.97C686.7,-104.72 687.22,-85.18 686.57,-68.56"/>
<polygon fill="#0606ef" stroke="black" points="690.04,-67.91 685.99,-58.12 683.05,-68.29 690.04,-67.91"/>
<path fill="none" stroke="black" d="M321.36,-306.86C404.81,-282.94 665.2,-202.39 682.82,-123.97"/>
</g>
<!-- pandas&#45;&gt;IntelligentEnergy_pipeline_modeling_bare_minimum -->
<g id="edge39" class="edge">
<title>pandas&#45;&gt;IntelligentEnergy_pipeline_modeling_bare_minimum</title><style>.edge>path:hover{stroke-width:8}</style>
<path fill="none" stroke="black" d="M273.49,-303.81C267.22,-301.27 260.34,-298.76 253.82,-296.97 198.65,-281.76 15.94,-299.42 1.82,-243.97"/>
</g>
<!-- seaborn&#45;&gt;IntelligentEnergy_pipeline_S4_ft_eng_math -->
<g id="edge40" class="edge">
<title>seaborn&#45;&gt;IntelligentEnergy_pipeline_S4_ft_eng_math</title><style>.edge>path:hover{stroke-width:8}</style>
<path fill="none" stroke="black" d="M720.82,-187.97C708.99,-145.42 787.56,-167.15 796.82,-123.97"/>
<path fill="none" stroke="black" d="M796.82,-121.97C800.98,-102.59 809.92,-82.55 818.67,-66.15"/>
<polygon fill="#9724d0" stroke="black" points="821.98,-67.39 823.76,-56.95 815.86,-64.01 821.98,-67.39"/>
</g>
<!-- seaborn&#45;&gt;IntelligentEnergy_pipeline_S5_approach_alt_modeling -->
<g id="edge41" class="edge">
<title>seaborn&#45;&gt;IntelligentEnergy_pipeline_S5_approach_alt_modeling</title><style>.edge>path:hover{stroke-width:8}</style>
<path fill="none" stroke="black" d="M733.55,-225.04C729.35,-214.76 724.25,-201.28 720.82,-188.97"/>
<path fill="none" stroke="black" d="M720.82,-187.97C713.29,-160.89 689.7,-170.79 668.82,-151.97 656.65,-140.99 651.97,-138.72 644.82,-123.97"/>
</g>
<!-- seaborn&#45;&gt;IntelligentEnergy_pipeline_S6_steam_allocation -->
<g id="edge42" class="edge">
<title>seaborn&#45;&gt;IntelligentEnergy_pipeline_S6_steam_allocation</title><style>.edge>path:hover{stroke-width:8}</style>
<path fill="none" stroke="black" d="M720.82,-187.97C711.96,-156.1 676.75,-156.49 682.82,-123.97"/>
</g>
<!-- sympy -->
<g id="node20" class="node">
<title>sympy</title><style>.edge>path:hover{stroke-width:8}</style>
<ellipse fill="#c04095" stroke="black" cx="1005.82" cy="-242.97" rx="27.16" ry="18"/>
<text text-anchor="middle" x="1005.82" y="-240.47" font-family="Helvetica,sans-Serif" font-size="10.00" fill="#ffffff">sympy</text>
</g>
<!-- sympy&#45;&gt;IntelligentEnergy_pipeline_S4_ft_eng_math -->
<g id="edge43" class="edge">
<title>sympy&#45;&gt;IntelligentEnergy_pipeline_S4_ft_eng_math</title><style>.edge>path:hover{stroke-width:8}</style>
<path fill="none" stroke="black" d="M1026.71,-231.24C1047.85,-219.78 1077.95,-201.57 1081.82,-188.97"/>
</g>
</g>
</svg>
